<?xml version="1.0" encoding="UTF-8"?>
<svg id="Capa_2" data-name="Capa 2" xmlns="http://www.w3.org/2000/svg" viewBox="0 0 873 274.7">
  <defs>
    <style>
      .cls-1 {
        fill: #fff;
      }

      .cls-2 {
        fill: #d4a413;
      }
    </style>
  </defs>
  <g id="Layer_1" data-name="Layer 1">
    <g>
      <g>
        <g>
          <rect class="cls-1" x="396" y="132.83" width="64.85" height="21.06"/>
          <rect class="cls-1" x="396" y="180.97" width="81" height="21.73"/>
          <rect class="cls-1" x="396" y="85.7" width="81" height="21.73"/>
        </g>
        <path class="cls-1" d="M548.21,199.28l-43.78-105.94c-1.51-3.64,1.17-7.65,5.1-7.65h16.05c2.24,0,4.26,1.36,5.11,3.44l37.76,92.57c1.48,3.64-1.19,7.62-5.11,7.62h0c-3.94,0-6.61-4.01-5.1-7.65l38.33-92.57c.86-2.07,2.87-3.41,5.1-3.41h13.81c3.94,0,6.61,4.01,5.1,7.65l-43.92,105.94c-.86,2.06-2.87,3.41-5.1,3.41h-18.24c-2.23,0-4.25-1.35-5.1-3.42Z"/>
        <path class="cls-1" d="M764.73,197.85l-45.33-110.04c-.53-1.28-1.73-2.11-3.07-2.11h-20.23c-1.34,0-2.55.83-3.07,2.11l-45.19,110.04c-.94,2.3.67,4.85,3.07,4.85h18.23c1.37,0,2.6-.87,3.1-2.19l8.77-22.88,7.88-20.56,17.16-44.78,14.22,37.27h.04v.11l19.4,50.84c.51,1.32,1.74,2.19,3.11,2.19h18.84c2.4,0,4.02-2.56,3.07-4.85Z"/>
        <path class="cls-1" d="M368.7,144.2c0,11.81-2.7,22.09-8.1,30.84-5.41,8.75-12.9,15.54-22.49,20.39-9.59,4.85-20.67,7.28-33.24,7.28h-25.47v-22.23h24.15c7.72,0,14.41-1.47,20.09-4.43s10.09-7.16,13.23-12.62c3.14-5.46,4.71-11.87,4.71-19.23s-1.57-13.89-4.71-19.31c-3.14-5.4-7.55-9.57-13.23-12.53-5.68-2.96-12.37-4.43-20.09-4.43h-4.75v22.1h-19.8v-44.3h.14v-.04h25.73c12.57,0,23.65,2.43,33.24,7.27,9.59,4.85,17.08,11.62,22.49,20.31,5.4,8.7,8.1,19,8.1,30.92Z"/>
        <path class="cls-2" d="M858.37,78.51c34.5,69.77,5.91,154.29-63.87,188.79-5.89,2.91-11.88,5.37-17.94,7.4,58.77-39.7,80.62-117.71,48.31-183.05-28.8-58.25-91.74-88.42-152.71-78.26,69.26-32.54,152.13-3.79,186.2,65.13Z"/>
        <g>
          <polygon class="cls-1" points="0 202.7 0 85.7 19.11 85.7 107.64 202.7 71.84 202.7 26.16 143.65 26.37 202.7 0 202.7"/>
          <polygon class="cls-2" points="55.75 85.77 108 85.77 108 154.41 55.75 85.77"/>
        </g>
        <g>
          <path class="cls-1" d="M179.59,86.67c70.83,39.67,42.9,96.32.02,115.3,96.66,12.02,96.39-129.24-.02-115.3Z"/>
          <path class="cls-1" d="M184.33,109.96c-44.82,36.23-5.42,65.71,2.3,68.95-68.38,27.79-68.52-93.77-2.3-68.95Z"/>
        </g>
      </g>
      <g>
        <path class="cls-2" d="M20.7,264.87c-1.21.61-3.63,1.21-6.74,1.21-7.19,0-12.6-4.54-12.6-12.9s5.41-13.4,13.32-13.4c3.18,0,5.18.68,6.05,1.13l-.79,2.69c-1.25-.61-3.03-1.06-5.15-1.06-5.98,0-9.95,3.82-9.95,10.52,0,6.24,3.59,10.25,9.8,10.25,2.01,0,4.05-.42,5.37-1.06l.68,2.61Z"/>
        <path class="cls-2" d="M40.87,256.39c0,6.77-4.69,9.73-9.12,9.73-4.96,0-8.78-3.63-8.78-9.42,0-6.13,4.01-9.73,9.08-9.73s8.82,3.82,8.82,9.42ZM26.34,256.58c0,4.01,2.31,7.04,5.56,7.04s5.56-2.99,5.56-7.11c0-3.1-1.55-7.04-5.49-7.04s-5.64,3.63-5.64,7.11Z"/>
        <path class="cls-2" d="M45.08,252.34c0-1.89-.04-3.44-.15-4.96h2.95l.19,3.03h.08c.91-1.74,3.03-3.44,6.05-3.44,2.54,0,6.47,1.51,6.47,7.8v10.94h-3.33v-10.56c0-2.95-1.1-5.41-4.24-5.41-2.2,0-3.9,1.55-4.47,3.41-.15.42-.23.98-.23,1.55v11.01h-3.33v-13.36Z"/>
        <path class="cls-2" d="M65.63,262.29c.98.64,2.72,1.32,4.39,1.32,2.42,0,3.56-1.21,3.56-2.72,0-1.59-.95-2.46-3.41-3.37-3.29-1.17-4.84-2.99-4.84-5.18,0-2.95,2.38-5.37,6.32-5.37,1.85,0,3.48.53,4.5,1.14l-.83,2.42c-.72-.45-2.04-1.06-3.75-1.06-1.97,0-3.06,1.13-3.06,2.5,0,1.51,1.1,2.2,3.48,3.1,3.18,1.21,4.81,2.8,4.81,5.52,0,3.22-2.5,5.49-6.85,5.49-2.01,0-3.86-.49-5.15-1.25l.83-2.54Z"/>
        <path class="cls-2" d="M96.4,260.71c0,1.89.04,3.56.15,5h-2.95l-.19-2.99h-.08c-.87,1.48-2.8,3.41-6.05,3.41-2.88,0-6.32-1.59-6.32-8.02v-10.71h3.33v10.14c0,3.48,1.06,5.83,4.09,5.83,2.23,0,3.79-1.55,4.39-3.03.19-.49.3-1.1.3-1.7v-11.24h3.33v13.32Z"/>
        <path class="cls-2" d="M101.93,238.83h3.33v26.87h-3.33v-26.87Z"/>
        <path class="cls-2" d="M114.87,242.12v5.26h4.77v2.54h-4.77v9.88c0,2.27.64,3.56,2.5,3.56.87,0,1.51-.11,1.93-.23l.15,2.5c-.64.26-1.67.45-2.95.45-1.55,0-2.8-.49-3.6-1.4-.95-.98-1.29-2.61-1.29-4.77v-9.99h-2.84v-2.54h2.84v-4.39l3.25-.87Z"/>
        <path class="cls-2" d="M139.73,256.39c0,6.77-4.69,9.73-9.12,9.73-4.96,0-8.78-3.63-8.78-9.42,0-6.13,4.01-9.73,9.08-9.73s8.82,3.82,8.82,9.42ZM125.2,256.58c0,4.01,2.31,7.04,5.56,7.04s5.56-2.99,5.56-7.11c0-3.1-1.55-7.04-5.49-7.04s-5.64,3.63-5.64,7.11Z"/>
        <path class="cls-2" d="M143.94,253.1c0-2.16-.04-4.01-.15-5.71h2.91l.11,3.6h.15c.83-2.46,2.84-4.01,5.07-4.01.38,0,.64.04.95.11v3.14c-.34-.08-.68-.11-1.14-.11-2.35,0-4.01,1.78-4.46,4.28-.08.45-.15.98-.15,1.55v9.76h-3.29v-12.6Z"/>
        <path class="cls-2" d="M163.24,239.48l-4.62,5.41h-2.38l3.33-5.41h3.67ZM156.47,265.7v-18.32h3.33v18.32h-3.33Z"/>
        <path class="cls-2" d="M175.46,265.7l-.27-2.31h-.11c-1.02,1.44-2.99,2.72-5.6,2.72-3.71,0-5.6-2.61-5.6-5.26,0-4.43,3.94-6.85,11.01-6.81v-.38c0-1.51-.42-4.24-4.16-4.24-1.7,0-3.48.53-4.77,1.36l-.76-2.19c1.51-.98,3.71-1.63,6.02-1.63,5.6,0,6.96,3.82,6.96,7.49v6.85c0,1.59.08,3.14.3,4.39h-3.03ZM174.97,256.35c-3.63-.08-7.76.57-7.76,4.12,0,2.16,1.44,3.18,3.14,3.18,2.38,0,3.9-1.51,4.43-3.07.11-.34.19-.72.19-1.06v-3.18Z"/>
        <path class="cls-2" d="M204.91,253.74h-9.92v9.2h11.05v2.76h-14.34v-25.51h13.77v2.76h-10.48v8.06h9.92v2.72Z"/>
        <path class="cls-2" d="M210.21,252.34c0-1.89-.04-3.44-.15-4.96h2.91l.15,2.95h.11c1.02-1.74,2.72-3.37,5.75-3.37,2.5,0,4.39,1.51,5.18,3.67h.08c.57-1.02,1.29-1.82,2.04-2.38,1.1-.83,2.31-1.29,4.05-1.29,2.42,0,6.02,1.59,6.02,7.95v10.78h-3.25v-10.37c0-3.52-1.29-5.64-3.97-5.64-1.89,0-3.37,1.4-3.94,3.03-.15.45-.27,1.06-.27,1.67v11.31h-3.25v-10.97c0-2.91-1.29-5.03-3.82-5.03-2.08,0-3.59,1.67-4.12,3.33-.19.49-.26,1.06-.26,1.63v11.05h-3.25v-13.36Z"/>
        <path class="cls-2" d="M241.78,253.36c0-2.35-.08-4.24-.15-5.98h2.99l.15,3.14h.08c1.36-2.23,3.52-3.56,6.51-3.56,4.43,0,7.76,3.75,7.76,9.31,0,6.58-4.01,9.84-8.33,9.84-2.42,0-4.54-1.06-5.64-2.88h-.08v9.95h-3.29v-19.83ZM245.07,258.25c0,.49.08.95.15,1.36.61,2.31,2.61,3.9,5,3.9,3.52,0,5.56-2.88,5.56-7.08,0-3.67-1.93-6.81-5.45-6.81-2.27,0-4.39,1.63-5.03,4.12-.11.42-.23.91-.23,1.36v3.14Z"/>
        <path class="cls-2" d="M263.31,253.1c0-2.16-.04-4.01-.15-5.71h2.91l.11,3.6h.15c.83-2.46,2.84-4.01,5.07-4.01.38,0,.64.04.95.11v3.14c-.34-.08-.68-.11-1.13-.11-2.35,0-4.01,1.78-4.47,4.28-.08.45-.15.98-.15,1.55v9.76h-3.29v-12.6Z"/>
        <path class="cls-2" d="M277.17,257.15c.08,4.5,2.95,6.36,6.28,6.36,2.38,0,3.82-.42,5.07-.95l.57,2.38c-1.17.53-3.18,1.14-6.09,1.14-5.64,0-9.01-3.71-9.01-9.23s3.25-9.88,8.59-9.88c5.98,0,7.57,5.26,7.57,8.63,0,.68-.08,1.21-.11,1.55h-12.87ZM286.93,254.76c.04-2.12-.87-5.41-4.62-5.41-3.37,0-4.84,3.1-5.11,5.41h9.73Z"/>
        <path class="cls-2" d="M293.82,262.29c.98.64,2.72,1.32,4.39,1.32,2.42,0,3.56-1.21,3.56-2.72,0-1.59-.95-2.46-3.41-3.37-3.29-1.17-4.84-2.99-4.84-5.18,0-2.95,2.38-5.37,6.32-5.37,1.85,0,3.48.53,4.5,1.14l-.83,2.42c-.72-.45-2.04-1.06-3.75-1.06-1.97,0-3.07,1.13-3.07,2.5,0,1.51,1.1,2.2,3.48,3.1,3.18,1.21,4.81,2.8,4.81,5.52,0,3.22-2.5,5.49-6.85,5.49-2,0-3.86-.49-5.15-1.25l.83-2.54Z"/>
        <path class="cls-2" d="M319.4,265.7l-.27-2.31h-.11c-1.02,1.44-2.99,2.72-5.6,2.72-3.71,0-5.6-2.61-5.6-5.26,0-4.43,3.94-6.85,11.01-6.81v-.38c0-1.51-.42-4.24-4.16-4.24-1.7,0-3.48.53-4.77,1.36l-.76-2.19c1.51-.98,3.71-1.63,6.02-1.63,5.6,0,6.96,3.82,6.96,7.49v6.85c0,1.59.08,3.14.3,4.39h-3.03ZM318.91,256.35c-3.63-.08-7.76.57-7.76,4.12,0,2.16,1.44,3.18,3.14,3.18,2.38,0,3.9-1.51,4.43-3.07.11-.34.19-.72.19-1.06v-3.18Z"/>
        <path class="cls-2" d="M327.51,253.1c0-2.16-.04-4.01-.15-5.71h2.91l.11,3.6h.15c.83-2.46,2.84-4.01,5.07-4.01.38,0,.64.04.95.11v3.14c-.34-.08-.68-.11-1.14-.11-2.35,0-4.01,1.78-4.46,4.28-.08.45-.15.98-.15,1.55v9.76h-3.29v-12.6Z"/>
        <path class="cls-2" d="M343.74,242.24c.04,1.14-.79,2.04-2.12,2.04-1.17,0-2-.91-2-2.04s.87-2.08,2.08-2.08,2.04.91,2.04,2.08ZM340.03,265.7v-18.32h3.33v18.32h-3.33Z"/>
        <path class="cls-2" d="M359.03,265.7l-.27-2.31h-.11c-1.02,1.44-2.99,2.72-5.6,2.72-3.71,0-5.6-2.61-5.6-5.26,0-4.43,3.94-6.85,11.01-6.81v-.38c0-1.51-.42-4.24-4.16-4.24-1.7,0-3.48.53-4.77,1.36l-.76-2.19c1.51-.98,3.71-1.63,6.02-1.63,5.6,0,6.96,3.82,6.96,7.49v6.85c0,1.59.08,3.14.3,4.39h-3.03ZM358.54,256.35c-3.63-.08-7.76.57-7.76,4.12,0,2.16,1.44,3.18,3.14,3.18,2.38,0,3.9-1.51,4.43-3.07.11-.34.19-.72.19-1.06v-3.18Z"/>
        <path class="cls-2" d="M367.13,238.83h3.33v26.87h-3.33v-26.87Z"/>
      </g>
    </g>
  </g>
</svg>